{"title":"[ShepardTDS] Heroic Age Dual Audio [720p 8-bit x265 HEVC] 1-26 C","uid":12860992,"size":5228065136,"categoryP":"video","categoryS":"tv_shows","magnet":"?xt=urn:btih:647b918cf3b7fbedb701312fabf38e9564fb69d6&amp;dn=%5BShepardTDS%5D+Heroic+Age+Dual+Audio+%5B720p+8-bit+x265+HEVC%5D+1-26+C&amp;tr=udp%3A%2F%2Ftracker.leechers-paradise.org%3A6969&amp;tr=udp%3A%2F%2Fzer0day.ch%3A1337&amp;tr=udp%3A%2F%2Fopen.demonii.com%3A1337&amp;tr=udp%3A%2F%2Ftracker.coppersurfer.tk%3A6969&amp;tr=udp%3A%2F%2Fexodus.desync.com%3A6969","seeders":2,"leechers":0,"uploader":"ShepardTDS","files":28,"time":1448736049,"description":"http://extraimago.com/images/2015/11/28/8122_front.jpg\r\n\r\nConstant Quality encoding.\r\nVariable Bit rates\r\nED and OP included\r\nBlu-Ray Source\r\n \nhttp://extraimago.com/images/2015/11/28/sample1.jpg\r\n \nhttp://extraimago.com/image/p7O\r\n\r\nGeneral\r\n\r\nFormat : Matroska\r\nFile size : 132 MiB-234 MiB\r\nDuration : 23mn 47s\r\nOverall bit rate : 777 Kbps-1,377 Kbps\r\nEncoded date : UTC 2015-11-27 21:37:25\r\nWriting application : mkvmerge v7.7.0 ('Six Voices') 32bit built on Feb 28 2015 23:23:00\r\nWriting library : libebml v1.3.1 + libmatroska v1.4.2\r\n\r\nVideo\r\nID : 1\r\nFormat : V_MPEGH/ISO/HEVC\r\nCodec ID : V_MPEGH/ISO/HEVC\r\nDuration : 23mn 47s\r\nBit rate : 377 Kbps-966 Kbps\r\nWidth : 1 280 pixels\r\nHeight : 720 pixels\r\nDisplay aspect ratio : 16:9\r\nFrame rate : 23.976 fps\r\nBits/(Pixel*Frame) : 0.017\r\nStream size : 64.2 MiB (49%)\r\n\r\nAudio #1\r\nID : 2\r\nFormat : AC-3\r\nFormat/Info : Audio Coding 3\r\nMode extension : CM (complete main)\r\nCodec ID : A_AC3\r\nDuration : 23mn 47s\r\nBit rate mode : Constant\r\nBit rate : 192 Kbps\r\nChannel(s) : 6 channels\r\nChannel positions : Front: L C R, Side: L R, LFE\r\nSampling rate : 48.0 KHz\r\nBit depth : 16 bits\r\nCompression mode : Lossy\r\nStream size : 32.7 MiB (25%)\r\nLanguage : English\r\n\r\nAudio #2\r\nID : 3\r\nFormat : AC-3\r\nFormat/Info : Audio Coding 3\r\nMode extension : CM (complete main)\r\nCodec ID : A_AC3\r\nDuration : 23mn 47s\r\nBit rate mode : Constant\r\nBit rate : 192 Kbps\r\nChannel(s) : 2 channels\r\nChannel positions : Front: L R\r\nSampling rate : 48.0 KHz\r\nBit depth : 16 bits\r\nCompression mode : Lossy\r\nStream size : 32.7 MiB (25%)\r\nLanguage : Japanese\r\n\r\nText #1\r\nID : 4\r\nFormat : ASS\r\nCodec ID : S_TEXT/ASS\r\nCodec ID/Info : Advanced Sub Station Alpha\r\nCompression mode : Lossless\r\nTitle : English\r\nLanguage : English\r\n\r\nText #2\r\nID : 5\r\nFormat : ASS\r\nCodec ID : S_TEXT/ASS\r\nCodec ID/Info : Advanced Sub Station Alpha\r\nCompression mode : Lossless\r\nTitle : Japanese (Romaji) OP/ED\r\nLanguage : Japanese","torrent":{"xt":"urn:btih:647b918cf3b7fbedb701312fabf38e9564fb69d6","amp;dn":"%5BShepardTDS%5D+Heroic+Age+Dual+Audio+%5B720p+8-bit+x265+HEVC%5D+1-26+C","amp;tr":["udp%3A%2F%2Ftracker.leechers-paradise.org%3A6969","udp%3A%2F%2Fzer0day.ch%3A1337","udp%3A%2F%2Fopen.demonii.com%3A1337","udp%3A%2F%2Ftracker.coppersurfer.tk%3A6969","udp%3A%2F%2Fexodus.desync.com%3A6969"],"infoHash":"647b918cf3b7fbedb701312fabf38e9564fb69d6","infoHashBuffer":{"type":"Buffer","data":[100,123,145,140,243,183,251,237,183,1,49,47,171,243,142,149,100,251,105,214]},"announce":[],"urlList":[]}}